<?xml version="1.0" encoding="UTF-8" standalone="no"?>
<!-- Generator: Avocode 2.4.3-3630f5a - http://avocode.com -->
<svg height="14" width="15" xmlns:xlink="http://www.w3.org/1999/xlink" viewBox="0 0 15 14" xmlns="http://www.w3.org/2000/svg">
  <path fill-rule="evenodd" d="m7.69 13.51h-3.46c-0.56 0-0.98-0.34-1.12-0.88-0.45-1.85-0.9-3.71-1.36-5.56-0.03-0.13-0.07-0.26-0.09-0.4-0.02-0.1-0.07-0.15-0.18-0.14-0.1 0.01-0.21 0-0.31 0-0.16-0.01-0.26-0.11-0.26-0.27-0.01-0.48 0-0.95-0.01-1.43 0-0.13 0.08-0.11 0.16-0.11h3.68c0.7 0 1.41 0 2.12 0.01 0.13 0 0.15-0.04 0.15-0.17v-3.79c0-0.35 0.25-0.65 0.58-0.68 0.35-0.04 0.66 0.16 0.75 0.49 0.02 0.08 0.03 0.16 0.03 0.24v3.67c0 0.27-0.03 0.23 0.22 0.23 1.92 0 3.84 0.01 5.76 0 0.14 0 0.19 0.03 0.19 0.19-0.01 0.43-0.01 0.87-0.01 1.3 0 0.22-0.09 0.32-0.32 0.32h-0.01c-0.45 0.01-0.44 0.01-0.55 0.43-0.46 1.9-0.93 3.81-1.39 5.71-0.13 0.49-0.57 0.84-1.08 0.84h-3.49zm-0.01-6.98h-0.2-4.29c-0.15 0-0.17 0.04-0.13 0.17 0.07 0.24 0.12 0.48 0.18 0.72 0.38 1.53 0.75 3.06 1.12 4.58 0.03 0.09 0.04 0.16 0.17 0.16 2.11-0.01 4.21-0.01 6.32 0 0.1 0 0.14-0.04 0.16-0.13 0.43-1.77 0.86-3.53 1.3-5.3 0.04-0.2 0.04-0.2-0.15-0.2h-4.48zm-0.33-0.96c0 0.17 0.15 0.33 0.33 0.33 0.18 0.01 0.34-0.15 0.35-0.32 0-0.19-0.15-0.35-0.34-0.35-0.18 0.01-0.34 0.16-0.34 0.34z" fill="#f00"/>
  <path fill-rule="evenodd" d="m9.86 11.21c-0.25 0-0.45-0.22-0.4-0.47 0.14-0.92 0.29-1.83 0.45-2.74 0.05-0.27 0.25-0.42 0.47-0.37 0.26 0.05 0.38 0.25 0.33 0.53-0.15 0.9-0.29 1.8-0.45 2.7-0.03 0.22-0.19 0.35-0.4 0.35" fill="#f00"/>
  <path fill-rule="evenodd" d="m5.97 10.8c0 0.21-0.16 0.39-0.36 0.41-0.23 0.02-0.42-0.12-0.46-0.36-0.06-0.35-0.11-0.7-0.17-1.05-0.09-0.53-0.18-1.07-0.27-1.6-0.04-0.26 0.02-0.43 0.2-0.53 0.24-0.13 0.55 0.01 0.6 0.28 0.16 0.93 0.3 1.87 0.46 2.8v0.05" fill="#f00"/>
  <path fill-rule="evenodd" d="m7.28 9.42v-1.36c0-0.26 0.18-0.44 0.42-0.44 0.22 0 0.4 0.18 0.4 0.43v2.73c0 0.23-0.14 0.39-0.34 0.42-0.21 0.03-0.39-0.08-0.46-0.28-0.02-0.06-0.02-0.12-0.02-0.18v-1.32" fill="#f00"/>
</svg>
