<svg xmlns="http://www.w3.org/2000/svg" viewBox="0 0 231.5 231.5">
    <path d="M215 88.7H110.3c-10.7 0-17.5-11.4-12.6-21 5.4-10 10-20.8 14.4-32 5.2-13-4-23.7-14.6-23.7-5.3 0-11 2.8-15.2 9.4-12.6 19.6-19.5 44.4-33.7 54C39.7 81.5 14.2 94 4.3 99 1.8 100 0 102.6 0 105.4v77c0 3.6 3 6.7 6.6 7.2l30.7 4c1 .2 2.2.6 3 1.2 26.7 17.5 45.7 24.7 63.4 24.7 3.8 0 7.6-.4 11.3-1 22.5-3.8 26-19.6 26.4-27 0-2.3 1.2-4.4 3-5.6 12-8 11.3-19.5 9.6-26-.7-3 .3-6 2.7-8 9-6.5 10-15.4 9-22-.7-4.4 2.6-8.3 7-8.3H215c22 0 22-33 0-33z"/>
</svg>
